<?xml version="1.0" encoding="utf-8"?>
<!-- Generator: Adobe Illustrator 22.1.0, SVG Export Plug-In . SVG Version: 6.00 Build 0)  -->
<svg version="1.1" id="Camada_1" xmlns="http://www.w3.org/2000/svg" xmlns:xlink="http://www.w3.org/1999/xlink" x="0px" y="0px"
	 viewBox="0 0 800 600" style="enable-background:new 0 0 800 600;" xml:space="preserve">
<style type="text/css">
	.st0{fill:#AF3110;}
</style>
<g>
	<path class="st0" d="M546.9,12H293.9c-15.9,0-29,13-29,29V541c0,15.9,13,29,29,29h252.9c15.9,0,29-13,29-29V41
		C575.8,25,562.8,12,546.9,12z M420.4,561.1c-10.5,0-19.1-8.5-19.1-19.1c0-10.5,8.5-19.1,19.1-19.1c10.5,0,19.1,8.5,19.1,19.1
		C439.5,552.6,431,561.1,420.4,561.1z M562.4,480.5c0,17.3-14.1,31.4-31.4,31.4H309.8c-17.3,0-31.4-14.1-31.4-31.4v-426
		c0-17.3,14.1-31.4,31.4-31.4H531c17.3,0,31.4,14.1,31.4,31.4V480.5z"/>
	<g>
		<path class="st0" d="M405.8,220.6c0.5-0.1,0.8-0.8,1.5-1.5c-0.9-0.4-1.5-0.9-1.9-0.8c-0.4,0.1-0.9,0.9-0.8,1.4
			C404.6,220.1,405.5,220.7,405.8,220.6z"/>
		<path class="st0" d="M447.1,177.9c-0.6-0.4-1.1-0.9-1.7-1.3c-0.2,0.2-0.3,0.4-0.5,0.5c0.4,0.5,0.8,1.1,1.3,1.6
			C446.6,178.5,446.9,178.2,447.1,177.9z"/>
		<path class="st0" d="M408.7,214c-1.6-0.2-2.6-0.3-4-0.5C406.1,215.2,406.1,215.2,408.7,214z"/>
		<path class="st0" d="M474.7,230.1c-3.5,0.2-3.5,0.2-3.4,3C472.5,232.1,473.6,231.1,474.7,230.1z"/>
		<path class="st0" d="M469.6,229.7c-0.2-0.3-0.5-0.6-0.7-1c-0.6,0.5-1.2,1-1.8,1.5c0.2,0.2,0.3,0.5,0.5,0.7
			C468.3,230.5,468.9,230.1,469.6,229.7z"/>
		<path class="st0" d="M389.3,225.3c-2.5,0.7-4.5,1.3-7,2.1C387.5,229.3,387.5,229.3,389.3,225.3z"/>
		<path class="st0" d="M531,27.9H309.8c-14.6,0-26.6,11.9-26.6,26.6v426c0,14.6,11.9,26.6,26.6,26.6H531c14.6,0,26.6-11.9,26.6-26.6
			v-426C557.5,39.8,545.6,27.9,531,27.9z M464.6,139.8c-0.6,1.5-0.9,2.5-1.4,3.4c-5.5,11.1-6.5,22.5-2,34.1c2.7,7,5.9,13.9,8.9,20.8
			c3.6,8.3,7.1,16.7,6.5,26.1c-0.1,2.1,0.2,4.4-1.9,5.9c0,0,0,0,0,0c-0.1,0.3-0.3,0.6-0.4,0.9c-2.6,13.3-11.7,19.4-24.1,21.6
			c-9,1.6-18.1,0.9-26.7-2.8c-0.9-0.4-1.9-0.8-2.6-1.5c-2-1.8-1.7-4.1,0.8-5.1c2.6-1.1,5.4-1.9,8.1-2.8c1.1-0.4,2.3-0.7,3.4-0.9
			c15.5-2.2,21.1-18.8,17.7-29.9c-2.2-7.2-5-14.2-7.6-21.3c-4.5-12.1-2.5-23.5,4.6-34C451.9,148.8,458.3,143.5,464.6,139.8z
			 M388.6,194.7c0.8-9.6,2.3-19.3,9.5-26.9c3.9-4.1,7.2-8.9,10.9-13.2c1.1-1.3,2-3.6,4.1-1.9c1.4-2.6,2.3-4.7,3.6-6.6
			c3.9-5.9,8-11.6,11.8-17.5c4.3-6.9,4.4-13.9-0.5-20.5c-3.3-4.4-7.1-8.4-10.7-12.6c-0.3-0.3-0.4-0.9-0.7-1.7c1-0.2,2-0.9,2.7-0.6
			c6.5,2.8,12.8,5.9,16.8,12.1c0.3,0.5,0.8,1.1,1.3,1.4c4.2,2.2,5.2,6.3,6.2,10.3c2.9,12.6-0.3,24.2-6.1,35.4
			c-2.8,5.3-5.1,11-7,16.7c-3.4,10.1,0.4,19.1,5.2,27.8c1.1,2.1,2.4,4,3.6,6c2.7,4.5,2.9,9.6,3,14.5c0.1,5.8-6.9,13.4-13.1,15.2
			c-2.1,0.6-4.1,1.4-6.2,1.7c-2,0.3-4.1,0.5-6-0.1c-8.1-2.6-15.6-6.8-19.9-14.1C392.4,212.4,387.8,204.1,388.6,194.7z M374.5,179.6
			c-3.8-9.7-8.9-18.5-18.5-23.6c-0.7-0.4-1.5-0.7-2.2-1.1c0.4-0.5,0.7-1.1,1.1-1.6c3-0.6,5.2,1.3,7.3,3.1
			c8.8,7.5,13.8,17.1,15.8,28.4c1.2,7.1,2.4,14.3,4,21.3c1.8,7.9,5.9,14.6,11.7,20.1c2.6,2.5,5.5,4.6,8,7.2c2.4,2.5,4.8,5.2,6.5,8.2
			c3.2,5.4,1.2,9.8-4.4,12.5c-6.4,3.1-11.7,1.4-16.8-2.5c-5.4-4.2-9.2-9.7-11.5-16.2c-3.3-9.4-5.4-18.9-3.5-29.1
			c1.4-7.2,2.1-14.6,3-21.9C375.1,182.9,375,181.1,374.5,179.6z M483.8,330.8c-8,11.8-15.6,23.1-24.5,34.4
			c-9.4,12.7-21.2,33-37.7,36.8c-3.8,0.5-21.7-4.2-21.2-7.1h0.9c-3.8-1.9,0,2.4-5.7-1.9c-4.2-2.8-7.1-7.1-9.9-11.3
			c-5.2-7.1-11.8-13.2-13.7-21.7c-0.5-2.4-1.4-19.3,2.4-19.3c0.9,0,0,2.4,0.5,2.4l1.4-8.5c-0.5,0.9-0.5,1.4-1.4,1.9
			c-1.9-0.5,7.1-34,8-36.8c3.8-9.9,5.7-21.2,15.1-26.9c7.1-4.7,16-3.8,25,0c3.8,1.4,14.6,6.1,14.6,10.9c0,2.8-2.4,3.3-3.8,4.7
			c0.5-0.5,1.4-0.5,1.9-0.5c1.4,0.9-5.7,10.9-6.6,10.4c-0.9,0,0.5-2.4,0.9-3.8c-9,14.6-16.5,31.1-22.2,47.7
			c2.4-6.1,14.2-32.6,15.6-32.1c1.4,0.5-31.1,57.1-15.1,65.1c7.5,3.8,20.3-8,25.5-12.3c9-7.1,21.2-16,27.8-24.1
			c-0.9,0.9-1.9,0.9-3.3,0.9c-1.9-2.4,21.7-33.5,26-36.3c3.3-2.4,9.9-4.2,10.9,1.9C497,314.3,488.5,324.7,483.8,330.8z"/>
	</g>
</g>
</svg>
