<?xml version="1.0" encoding="utf-8"?>
<!-- Generator: Adobe Illustrator 22.1.0, SVG Export Plug-In . SVG Version: 6.00 Build 0)  -->
<svg version="1.1" id="Camada_1" xmlns="http://www.w3.org/2000/svg" xmlns:xlink="http://www.w3.org/1999/xlink" x="0px" y="0px"
	 viewBox="0 0 300 400" style="enable-background:new 0 0 300 400;" xml:space="preserve">
<style type="text/css">
	.st0{fill:#AF3110;}
</style>
<g>
	<path class="st0" d="M280.4,174.4H272c0-43.3-20.8-81.6-52.6-104.5v32.7c0,6.4-5.2,11.6-11.6,11.6h-1c-6.4,0-11.6-5.2-11.6-11.6
		V56.3c-10.4-4.3-21.4-7.1-32.9-8.3v72.7c0,6.4-5.2,11.6-11.6,11.6h-1c-6.4,0-11.6-5.2-11.6-11.6V48c-11.3,1.2-22.2,3.9-32.3,8.1
		v46.4c0,6.4-5.2,11.6-11.6,11.6h-1c-6.4,0-11.6-5.2-11.6-11.6V69.4c-32.1,22.9-53.2,61.3-53.2,104.9h-8.4
		c-6.4,0-11.6,5.2-11.6,11.6v8.4c0,6.4,5.2,11.6,11.6,11.6h260.5c6.4,0,11.6-5.2,11.6-11.6V186C292,179.6,286.8,174.4,280.4,174.4z"
		/>
	<path class="st0" d="M150.2,319.2c57.7,0,104.9-45.2,108.1-102.1c0.2-3.3-2.4-6.1-5.7-6.1H47.8c-3.3,0-5.9,2.8-5.7,6.1
		C45.3,274,92.4,319.2,150.2,319.2z"/>
</g>
</svg>
