<?xml version="1.0" encoding="UTF-8" standalone="no"?>
<!DOCTYPE svg PUBLIC "-//W3C//DTD SVG 1.1//EN" "http://www.w3.org/Graphics/SVG/1.1/DTD/svg11.dtd">
<svg version="1.1" xmlns="http://www.w3.org/2000/svg" xmlns:xlink="http://www.w3.org/1999/xlink" preserveAspectRatio="xMidYMid meet" viewBox="0 0 30 39" width="30" height="39"><defs><path d="M32 -1C32 -1 32 -1 32 -1C32 23.6 32 37.27 32 40C32 40 32 40 32 40C12.2 40 1.2 40 -1 40C-1 40 -1 40 -1 40C-1 15.4 -1 1.73 -1 -1C-1 -1 -1 -1 -1 -1C18.8 -1 29.8 -1 32 -1Z" id="c3DQAmrJW2"></path><path d="M15.79 0.03L15.82 0.04L16.11 0.17L16.41 0.3L16.7 0.44L16.98 0.58L17.26 0.72L17.54 0.87L17.81 1.03L18.08 1.2L18.33 1.37L18.58 1.56L18.82 1.75L19.06 1.96L19.28 2.18L19.49 2.41L19.69 2.66L19.87 2.93L19.89 2.95L19.9 2.98L19.92 3L19.94 3.03L19.96 3.05L19.98 3.08L20 3.1L20.02 3.12L20.04 3.15L20.07 3.17L20.09 3.19L20.12 3.21L20.14 3.22L20.17 3.24L20.19 3.26L20.22 3.27L20.4 3.38L20.57 3.49L20.72 3.62L20.85 3.75L20.97 3.89L21.08 4.04L21.17 4.19L21.26 4.35L21.33 4.52L21.4 4.68L21.47 4.85L21.52 5.03L21.58 5.21L21.63 5.38L21.68 5.56L21.73 5.74L21.84 6.31L21.92 6.87L21.97 7.42L21.99 7.97L21.98 8.51L21.94 9.05L21.87 9.58L21.78 10.11L21.67 10.64L21.53 11.16L21.37 11.68L21.19 12.2L20.99 12.72L20.77 13.24L20.54 13.76L20.29 14.27L20.16 14.52L20.03 14.76L19.91 15.01L19.8 15.25L19.68 15.5L19.57 15.75L19.46 15.99L19.36 16.24L19.26 16.49L19.16 16.74L19.06 16.99L18.97 17.24L18.88 17.49L18.8 17.75L18.71 18L18.64 18.26L18.5 18.71L18.4 19.15L18.34 19.59L18.32 20.03L18.32 20.46L18.36 20.88L18.42 21.31L18.51 21.72L18.62 22.14L18.75 22.55L18.9 22.95L19.07 23.36L19.25 23.76L19.45 24.15L19.66 24.54L19.87 24.93L19.93 25.02L19.98 25.11L20.03 25.2L20.08 25.29L20.13 25.38L20.19 25.47L20.24 25.56L20.29 25.65L20.35 25.74L20.41 25.83L20.46 25.92L20.52 26.01L20.58 26.1L20.64 26.19L20.7 26.28L20.77 26.38L20.89 26.58L20.99 26.79L21.09 27L21.17 27.21L21.23 27.43L21.29 27.64L21.33 27.86L21.37 28.08L21.4 28.3L21.42 28.52L21.43 28.74L21.44 28.97L21.45 29.19L21.45 29.42L21.46 29.65L21.46 29.88L21.44 30.15L21.38 30.42L21.29 30.69L21.17 30.97L21.03 31.25L20.85 31.53L20.66 31.8L20.44 32.07L20.21 32.32L19.96 32.56L19.7 32.78L19.42 32.98L19.15 33.16L18.86 33.31L18.58 33.43L18.29 33.53L18.2 33.55L18.11 33.58L18.02 33.61L17.93 33.64L17.84 33.67L17.75 33.7L17.65 33.73L17.56 33.76L17.47 33.79L17.37 33.82L17.28 33.84L17.18 33.87L17.08 33.89L16.98 33.91L16.88 33.93L16.78 33.94L16.69 33.95L16.6 33.96L16.51 33.98L16.42 33.99L16.33 34L16.24 34.01L16.15 34.01L16.06 34.02L15.97 34.02L15.88 34.02L15.79 34.01L15.7 34.01L15.61 34L15.52 33.98L15.43 33.96L15.34 33.94L14.98 33.82L14.62 33.69L14.26 33.55L13.92 33.39L13.57 33.23L13.24 33.05L12.91 32.87L12.59 32.67L12.29 32.45L11.99 32.23L11.71 31.99L11.44 31.73L11.18 31.47L10.95 31.18L10.72 30.88L10.52 30.57L10.32 30.22L10.11 29.87L9.91 29.51L9.72 29.15L9.53 28.78L9.35 28.42L9.19 28.04L9.03 27.66L8.9 27.28L8.78 26.89L8.68 26.5L8.6 26.1L8.54 25.7L8.51 25.29L8.5 24.87L8.53 24.45L8.57 24.01L8.61 23.58L8.67 23.14L8.73 22.71L8.8 22.29L8.88 21.87L8.98 21.45L9.09 21.04L9.23 20.63L9.38 20.23L9.55 19.84L9.75 19.45L9.97 19.07L10.21 18.7L10.49 18.34L10.8 17.99L10.97 17.8L11.15 17.62L11.32 17.42L11.49 17.23L11.65 17.03L11.81 16.83L11.97 16.63L12.13 16.43L12.29 16.23L12.44 16.02L12.6 15.82L12.76 15.62L12.92 15.41L13.08 15.21L13.24 15.02L13.41 14.82L13.45 14.76L13.49 14.69L13.53 14.61L13.57 14.54L13.61 14.48L13.66 14.41L13.7 14.35L13.75 14.3L13.81 14.25L13.86 14.22L13.92 14.2L13.99 14.19L14.06 14.2L14.14 14.23L14.22 14.27L14.3 14.34L14.37 14.23L14.43 14.11L14.48 14.01L14.54 13.9L14.59 13.8L14.65 13.7L14.7 13.6L14.75 13.5L14.8 13.4L14.85 13.31L14.91 13.21L14.96 13.12L15.02 13.03L15.07 12.94L15.13 12.85L15.2 12.76L15.38 12.49L15.56 12.22L15.74 11.96L15.92 11.7L16.1 11.44L16.28 11.18L16.46 10.92L16.63 10.66L16.81 10.4L16.99 10.15L17.16 9.89L17.33 9.63L17.51 9.36L17.68 9.1L17.85 8.83L18.02 8.56L18.2 8.25L18.36 7.94L18.49 7.63L18.6 7.32L18.68 7L18.74 6.69L18.77 6.38L18.77 6.06L18.75 5.75L18.71 5.44L18.64 5.13L18.54 4.82L18.41 4.52L18.26 4.21L18.09 3.91L17.88 3.61L17.74 3.42L17.59 3.23L17.43 3.04L17.28 2.85L17.12 2.66L16.96 2.47L16.8 2.29L16.63 2.1L16.47 1.91L16.3 1.73L16.14 1.54L15.97 1.35L15.81 1.16L15.65 0.97L15.49 0.78L15.34 0.59L15.32 0.57L15.31 0.56L15.3 0.54L15.29 0.52L15.29 0.5L15.28 0.48L15.27 0.46L15.27 0.43L15.26 0.41L15.25 0.35L15.24 0.32L15.23 0.28L15.22 0.25L15.21 0.21L15.2 0.17L15.24 0.16L15.28 0.15L15.32 0.13L15.36 0.11L15.4 0.1L15.45 0.08L15.49 0.07L15.53 0.05L15.57 0.04L15.61 0.03L15.65 0.02L15.69 0.02L15.73 0.02L15.76 0.02L15.79 0.03ZM12.32 30.21L12.26 30.32L12.24 30.43L12.27 30.5L12.35 30.59L12.44 30.65L12.52 30.64L12.65 30.6L12.75 30.52L12.83 30.41L12.93 30.29L12.79 30.23L12.66 30.17L12.55 30.11L12.45 30.09L12.39 30.12L12.32 30.21ZM12.69 29.25L12.91 29.21L13.27 29.06L13 29.02L12.76 28.99L12.55 28.96L12.31 28.92L12.52 29.15L12.69 29.25Z" id="e3XY7iCsnj"></path><path d="M26.7 11.32L26.67 11.39L26.65 11.46L26.62 11.52L26.6 11.58L26.58 11.64L26.56 11.7L26.53 11.76L26.51 11.81L26.49 11.86L26.46 11.91L26.44 11.96L26.41 12L26.14 12.58L25.91 13.16L25.71 13.74L25.55 14.32L25.42 14.9L25.32 15.48L25.26 16.07L25.24 16.65L25.26 17.24L25.31 17.83L25.4 18.42L25.54 19.01L25.71 19.6L25.93 20.19L26.07 20.55L26.22 20.92L26.38 21.28L26.53 21.63L26.68 21.99L26.84 22.34L27.15 23.05L27.3 23.4L27.45 23.76L27.61 24.12L27.76 24.48L27.91 24.84L28.06 25.21L28.25 25.63L28.43 26.06L28.61 26.49L28.79 26.92L28.95 27.36L29.1 27.79L29.23 28.23L29.36 28.68L29.46 29.13L29.54 29.58L29.6 30.04L29.64 30.51L29.65 30.98L29.64 31.46L29.63 31.58L29.62 31.7L29.61 31.82L29.6 31.93L29.59 32.04L29.57 32.16L29.55 32.26L29.53 32.37L29.49 32.47L29.45 32.57L29.4 32.66L29.33 32.75L29.25 32.83L29.16 32.91L28.99 32.92L28.85 32.94L28.73 32.95L28.63 32.97L28.55 32.99L28.49 33.01L28.44 33.05L28.4 33.09L28.37 33.14L28.35 33.2L28.34 33.28L28.33 33.37L28.33 33.47L28.33 33.6L28.39 33.55L28.45 33.51L28.51 33.46L28.57 33.42L28.63 33.37L28.69 33.33L28.74 33.28L28.8 33.23L28.86 33.18L28.92 33.13L28.98 33.08L29.04 33.02L29.1 32.97L29.16 32.91L29.16 32.92L29.15 32.94L29.15 32.95L29.14 32.97L29.14 32.98L29.13 33L29.12 33.03L29.11 33.04L29.1 33.06L29.1 33.07L29.09 33.08L29.09 33.1L29.09 33.11L28.93 33.77L28.73 34.37L28.48 34.93L28.19 35.44L27.86 35.9L27.49 36.32L27.08 36.7L26.63 37.04L26.15 37.33L25.64 37.59L25.1 37.81L24.53 38L23.93 38.15L23.31 38.27L22.84 38.35L22.37 38.41L21.91 38.45L21.44 38.47L20.98 38.47L20.52 38.46L20.06 38.42L19.61 38.36L19.15 38.28L18.7 38.18L18.25 38.06L17.81 37.93L17.36 37.77L16.92 37.58L16.87 37.57L16.83 37.55L16.78 37.53L16.74 37.51L16.7 37.49L16.65 37.46L16.61 37.44L16.56 37.41L16.52 37.38L16.47 37.36L16.43 37.33L16.39 37.3L16.34 37.27L16.3 37.24L16.2 37.15L16.13 37.06L16.06 36.96L16.02 36.86L15.99 36.76L15.98 36.67L15.99 36.57L16.01 36.48L16.05 36.38L16.11 36.3L16.18 36.21L16.27 36.14L16.38 36.07L16.5 36L16.64 35.94L16.77 35.89L16.91 35.83L17.05 35.78L17.19 35.73L17.33 35.68L17.47 35.63L17.61 35.59L17.75 35.54L17.89 35.49L18.02 35.45L18.16 35.4L18.3 35.36L18.43 35.31L18.49 35.3L18.55 35.28L18.61 35.26L18.67 35.24L18.72 35.22L18.78 35.2L18.84 35.19L18.9 35.17L18.96 35.15L19.02 35.14L19.08 35.13L19.14 35.12L19.2 35.11L19.25 35.11L20.01 34.94L20.7 34.68L21.32 34.33L21.87 33.91L22.35 33.42L22.75 32.89L23.09 32.31L23.36 31.7L23.55 31.06L23.68 30.42L23.74 29.78L23.74 29.15L23.66 28.54L23.52 27.96L23.4 27.59L23.28 27.22L23.16 26.85L23.03 26.48L22.9 26.12L22.77 25.75L22.64 25.39L22.51 25.02L22.37 24.66L22.23 24.3L22.09 23.94L21.95 23.58L21.81 23.22L21.66 22.87L21.45 22.25L21.29 21.64L21.17 21.03L21.1 20.43L21.07 19.83L21.09 19.24L21.15 18.65L21.26 18.06L21.41 17.49L21.6 16.91L21.83 16.35L22.1 15.79L22.41 15.23L22.76 14.68L22.96 14.39L23.19 14.1L23.42 13.82L23.68 13.54L23.95 13.27L24.23 13.01L24.52 12.75L24.83 12.5L25.14 12.26L25.45 12.02L25.78 11.8L26.1 11.58L26.43 11.37L26.75 11.18L26.72 11.25L26.7 11.32ZM27.47 32.88L27.37 32.98L27.41 33.03L27.44 33.07L27.47 33.1L27.51 33.11L27.57 33.05L27.66 32.98L27.78 32.9L27.92 32.84L27.87 32.79L27.83 32.74L27.79 32.68L27.78 32.63L27.68 32.73L27.47 32.88ZM22.04 20.29L22.13 20.39L22.22 20.5L22.28 20.6L22.49 20.39L22.38 20.3L22.18 20.14L22.07 20.05L21.94 20.19L22.04 20.29Z" id="b2Qs6u7tOb"></path><path d="M0.86 14.48L1.02 14.52L1.17 14.58L1.31 14.65L1.44 14.73L1.57 14.82L1.7 14.92L1.82 15.03L1.94 15.13L2.06 15.23L2.58 15.69L3.05 16.17L3.49 16.68L3.88 17.2L4.25 17.74L4.57 18.3L4.87 18.88L5.12 19.48L5.35 20.1L5.55 20.73L5.71 21.38L5.85 22.04L5.91 22.47L5.98 22.9L6.05 23.33L6.13 23.76L6.2 24.19L6.28 24.61L6.35 25.04L6.44 25.46L6.52 25.88L6.61 26.3L6.71 26.72L6.81 27.13L6.92 27.59L7.06 28.04L7.22 28.48L7.4 28.91L7.61 29.34L7.83 29.74L8.08 30.14L8.35 30.53L8.64 30.9L8.95 31.26L9.28 31.61L9.63 31.95L9.78 32.1L9.94 32.24L10.1 32.39L10.26 32.53L10.43 32.67L10.75 32.94L10.92 33.08L11.08 33.22L11.24 33.37L11.4 33.51L11.55 33.66L11.69 33.82L11.83 33.97L11.97 34.13L12.12 34.29L12.26 34.45L12.4 34.61L12.53 34.77L12.66 34.94L12.79 35.12L12.91 35.29L13.03 35.47L13.13 35.66L13.3 35.98L13.41 36.29L13.48 36.59L13.49 36.87L13.47 37.14L13.39 37.4L13.28 37.65L13.12 37.88L12.92 38.11L12.69 38.31L12.41 38.51L12.1 38.68L11.73 38.85L11.36 38.97L11 39.04L10.65 39.07L10.31 39.07L9.97 39.02L9.64 38.94L9.31 38.82L8.99 38.67L8.67 38.5L8.36 38.29L8.05 38.07L7.73 37.8L7.43 37.53L7.14 37.24L6.87 36.94L6.62 36.63L6.39 36.31L6.17 35.98L5.96 35.64L5.77 35.28L5.6 34.91L5.44 34.54L5.3 34.15L5.1 33.58L4.91 33.01L4.75 32.44L4.61 31.87L4.49 31.29L4.39 30.72L4.32 30.13L4.29 29.55L4.28 28.95L4.31 28.35L4.37 27.75L4.47 27.13L4.55 26.7L4.63 26.27L4.69 25.83L4.76 25.39L4.81 24.95L4.87 24.51L4.92 24.07L4.96 23.62L5.01 23.18L5.06 22.73L5.11 22.28L5.16 21.84L5.17 21.73L5.18 21.63L5.18 21.53L5.18 21.43L5.18 21.33L5.17 21.23L5.15 21.13L5.13 21.03L5.11 20.94L5.08 20.84L5.05 20.75L5.02 20.67L4.79 20.09L4.54 19.52L4.27 18.96L3.98 18.42L3.67 17.9L3.33 17.4L2.95 16.92L2.55 16.47L2.11 16.04L1.63 15.65L1.11 15.29L0.55 14.96L0.5 14.94L0.45 14.93L0.41 14.91L0.36 14.89L0.32 14.87L0.28 14.85L0.23 14.83L0.19 14.8L0.14 14.78L0.1 14.75L0.05 14.72L0 14.68L0.03 14.7L0.06 14.7L0.09 14.7L0.12 14.69L0.15 14.68L0.17 14.66L0.2 14.64L0.22 14.61L0.25 14.58L0.28 14.55L0.31 14.51L0.34 14.48L0.53 14.46L0.7 14.46L0.86 14.48ZM7.8 32.02L7.39 32.15L6.95 32.29L7.67 32.51L8.08 32.54L8.34 32.32L8.6 31.81L8.19 31.91L7.8 32.02Z" id="idpVbixu3"></path></defs><g><g><g><use xlink:href="#c3DQAmrJW2" opacity="1" fill="#000000" fill-opacity="0"></use></g><g><use xlink:href="#e3XY7iCsnj" opacity="1" fill="#222222" fill-opacity="1"></use></g><g><use xlink:href="#b2Qs6u7tOb" opacity="1" fill="#222222" fill-opacity="1"></use></g><g><use xlink:href="#idpVbixu3" opacity="1" fill="#222222" fill-opacity="1"></use></g></g></g></svg>