<?xml version="1.0" encoding="utf-8"?>
<!-- Generator: Adobe Illustrator 22.1.0, SVG Export Plug-In . SVG Version: 6.00 Build 0)  -->
<svg version="1.1" id="Camada_1" xmlns="http://www.w3.org/2000/svg" xmlns:xlink="http://www.w3.org/1999/xlink" x="0px" y="0px"
	 viewBox="0 0 800 600" style="enable-background:new 0 0 800 600;" xml:space="preserve">
<style type="text/css">
	.st0{fill:#AF3110;}
</style>
<g>
	<g>
		<path class="st0" d="M400,203.8c-53,0-96.2,43.2-96.2,96.2c0,53,43.2,96.2,96.2,96.2c53,0,96.2-43.2,96.2-96.2
			C496.2,246.9,453.1,203.8,400,203.8z M400,336.3c-20.1,0-36.3-16.3-36.3-36.3c0-20.1,16.3-36.3,36.3-36.3s36.3,16.3,36.3,36.3
			C436.3,320,420.1,336.3,400,336.3z"/>
		<path class="st0" d="M659,294.2L659,294.2c-1.8-1.8-3.7-3.5-5.5-5.2c-102.3-95.5-177.7-136.4-251.8-136.4c-0.3,0-0.6,0-0.9,0
			c-73.5,0.3-149.5,41.1-254.2,136.4l-5.5,5l0,0.1c-1.8,1-3.1,3.3-3.1,6c0,2.6,1.2,4.8,2.9,5.8l0,0c1.8,1.7,3.6,3.3,5.3,5l0.2,0.2
			c102.3,95.5,177.7,136.4,251.8,136.4c0.3,0,0.6,0,0.9,0c73.5-0.3,149.5-41.1,254.2-136.4l5.4-5c1.9-1,3.2-3.3,3.2-6
			C662,297.4,660.7,295.2,659,294.2z M400,420.4c-66.4,0-120.4-54-120.4-120.4c0-66.4,54-120.4,120.4-120.4
			c66.4,0,120.4,54,120.4,120.4C520.5,366.4,466.4,420.4,400,420.4z"/>
	</g>
	<g>
		<path class="st0" d="M405.9,139.7h-11.8c-2.1,0-3.9-1.8-3.9-3.9V13.9c0-2.1,1.8-3.9,3.9-3.9h11.8c2.1,0,3.9,1.8,3.9,3.9v121.9
			C409.8,138,408,139.7,405.9,139.7z"/>
		<path class="st0" d="M527.1,180.8l-8.3-8.3c-1.5-1.5-1.5-4,0-5.5L605,80.8c1.5-1.5,4-1.5,5.5,0l8.3,8.3c1.5,1.5,1.5,4,0,5.5
			l-86.2,86.2C531.1,182.4,528.6,182.4,527.1,180.8z"/>
		<path class="st0" d="M272.9,180.8l8.3-8.3c1.5-1.5,1.5-4,0-5.5L195,80.8c-1.5-1.5-4-1.5-5.5,0l-8.3,8.3c-1.5,1.5-1.5,4,0,5.5
			l86.2,86.2C268.9,182.4,271.4,182.4,272.9,180.8z"/>
	</g>
	<g>
		<path class="st0" d="M405.9,460.2h-11.8c-2.1,0-3.9,1.8-3.9,3.9v121.9c0,2.1,1.8,3.9,3.9,3.9h11.8c2.1,0,3.9-1.8,3.9-3.9V464.1
			C409.8,462,408,460.2,405.9,460.2z"/>
		<path class="st0" d="M527.1,419.1l-8.3,8.3c-1.5,1.5-1.5,4,0,5.5l86.2,86.2c1.5,1.5,4,1.5,5.5,0l8.3-8.3c1.5-1.5,1.5-4,0-5.5
			l-86.2-86.2C531.1,417.6,528.6,417.6,527.1,419.1z"/>
		<path class="st0" d="M272.9,419.1l8.3,8.3c1.5,1.5,1.5,4,0,5.5L195,519.2c-1.5,1.5-4,1.5-5.5,0l-8.3-8.3c-1.5-1.5-1.5-4,0-5.5
			l86.2-86.2C268.9,417.6,271.4,417.6,272.9,419.1z"/>
	</g>
</g>
</svg>
