<?xml version="1.0" encoding="utf-8"?>
<!-- Generator: Adobe Illustrator 22.1.0, SVG Export Plug-In . SVG Version: 6.00 Build 0)  -->
<svg version="1.1" id="Camada_1" xmlns="http://www.w3.org/2000/svg" xmlns:xlink="http://www.w3.org/1999/xlink" x="0px" y="0px"
	 viewBox="0 0 800 600" style="enable-background:new 0 0 800 600;" xml:space="preserve">
<style type="text/css">
	.st0{fill:#AF3110;}
</style>
<g>
	<path class="st0" d="M344.3,253.3c-5.9,7.6-12,15-18.6,22c-24.8,26.1-30,59.2-32.7,92.3c-1,11.5,0.4,22.5,3.3,33.1L394,303
		L344.3,253.3z"/>
	<path class="st0" d="M447.9,249.1c3.8-9.1,8-18.1,12.5-26.9c19.9-38.5,30.9-78.1,20.8-121.5c-3.3-14-6.7-28.1-21.2-35.5
		c-1.9-1-3.4-3-4.6-4.9c-13.7-21.4-35.3-32.1-57.6-41.6c-2.2-0.9-5.8,1.2-9.2,2.1c1.1,3,1.4,4.8,2.4,6
		c12.3,14.4,25.5,28.1,36.8,43.2c16.9,22.6,16.7,46.9,1.8,70.5c-12.9,20.5-27.1,40-40.5,60.2c-4.2,6.4-7.4,13.5-12.3,22.6
		c-5.5-4.5-8.6-0.7-11.5,3.3l52.5,52.5L447.9,249.1z"/>
	<path class="st0" d="M269.6,406.7c-5.5-24.2-9.4-48.7-13.6-73.1c-6.8-38.9-24-72-54.3-97.7c-7.2-6.1-14.5-12.8-24.9-10.6
		c-1.3,1.8-2.5,3.7-3.8,5.5c2.6,1.2,5.2,2.3,7.7,3.7c33.2,17.7,50.6,47.8,63.6,81.2c2,5.1,2.2,11.4,1.6,16.9
		c-3,25.1-5.5,50.4-10.3,75.2c-3.6,18.5-3.2,36.4-0.3,54l39.1-39.1C272.5,417.5,270.9,412.2,269.6,406.7z"/>
	<path class="st0" d="M432.9,294.1l8.9,8.9l37.3-37.3c4-12.5,10.1-24.7,18.1-36.5c13.1-19.4,35.1-37.7,56.7-50.3
		c-2.1,5.2-3.2,8.6-4.8,11.8c-1.5,3.1-2.9,6.2-4.3,9.3L695,49.9c6.6-6.6,6.6-17.4,0-23.9c-6.6-6.6-17.4-6.6-23.9,0L447.9,249.1
		c-4.2,10-8,20.2-11.4,30.4C434.8,284.4,433.7,289.3,432.9,294.1z"/>
	<path class="st0" d="M140.9,556.1c-6.6,6.6-6.6,17.4,0,23.9c6.6,6.6,17.4,6.6,23.9,0l80-80c-4.2-12.7-7.5-25.4-9.6-38.3
		L140.9,556.1z"/>
	<path class="st0" d="M274.3,422.7c4.1,11.2,9.6,21.7,16.5,31.4l19.4-19.4c-5.7-10.9-10.7-22.2-13.9-34L274.3,422.7z"/>
	<path class="st0" d="M365.4,226.6L164.8,25.9c-6.6-6.6-17.4-6.6-23.9,0c-6.6,6.6-6.6,17.4,0,23.9l203.4,203.4
		c6.2-7.9,12.3-15.9,18.7-23.5C363.8,228.8,364.6,227.7,365.4,226.6z"/>
	<path class="st0" d="M695,556.1l-99.5-99.5c0.2,4.1,0.2,8.2-0.1,12.4c-0.5,7.3,0.8,15.2-6.6,20.2c0,0,0,0,0,0c-0.4,1-1,2.1-1.2,3.1
		c-0.2,1.2-0.5,2.3-0.7,3.5l84.2,84.2c6.6,6.6,17.4,6.6,23.9,0C701.6,573.5,701.6,562.7,695,556.1z"/>
	<path class="st0" d="M479.9,341l-38-38l-9.7,9.7c0.9,13.4,4.9,26.3,10.3,38.9l64.1,64.1c-7.3-23.6-16.6-46.5-25.1-69.7
		C480.9,344.3,480.4,342.6,479.9,341z"/>
	<path class="st0" d="M359.7,529c-6-10.3-14.1-19.6-22.4-28.3c-8.5-8.9-18.5-16.4-27.5-24.9c-7.1-6.8-13.5-14-19-21.8l-46,46
		c0.8,2.6,1.7,5.1,2.6,7.7c7.8,22.4,20.7,41.2,39.4,55.8c17.4,13.5,35.9,19.4,57.7,8.7C363.8,562.7,370.5,547.6,359.7,529z"/>
	<path class="st0" d="M466.9,395.7c-4.2-6.9-8.6-13.7-12.5-20.7c-4.3-7.7-8.4-15.5-11.8-23.4l-24.6-24.6L310.2,434.6
		c3.6,6.8,7.5,13.5,11.3,20.1c14.8,25.1,40.6,39.6,68.5,48.5c6.3,2,13.7,1.3,20.5,0.4c7.3-1,14.3-3.8,21.5-5.9
		c21.3-6.1,45.3-32.3,45.1-52.1C476.9,428.6,476.3,411.1,466.9,395.7z"/>
	<path class="st0" d="M572.9,379.4c-10.3-23.8-21.1-47.3-30.5-71.4c-14.3-36.6-12.6-72.7,2.5-107.9l-65.6,65.6
		c-7.8,24-7.9,49.1,0.7,75.3l115.6,115.6C594.2,429.3,583.7,404.3,572.9,379.4z"/>
	<path class="st0" d="M584.2,493.2C584.2,493.2,584.2,493.2,584.2,493.2L581,490c0,0,0,0,0,0l-74.4-74.4c0.3,1.1,0.7,2.2,1,3.3
		c11.5,38.1-7.8,95-60.9,102.6c-4,0.6-7.9,1.8-11.7,3c-9.3,3-18.8,5.7-27.8,9.5c-8.6,3.6-9.7,11.5-2.9,17.6c2.5,2.2,5.8,3.8,8.9,5.1
		c29.5,12.8,60.6,15.1,91.6,9.7c41.2-7.2,72.2-27.5,81.9-70.7L584.2,493.2z"/>
</g>
</svg>
