<?xml version="1.0" encoding="utf-8"?>
<!-- Generator: Adobe Illustrator 22.1.0, SVG Export Plug-In . SVG Version: 6.00 Build 0)  -->
<svg version="1.1" id="Camada_1" xmlns="http://www.w3.org/2000/svg" xmlns:xlink="http://www.w3.org/1999/xlink" x="0px" y="0px"
	 viewBox="0 0 298 330" style="enable-background:new 0 0 298 330;" xml:space="preserve">
<style type="text/css">
	.st0{fill:#AF3110;}
</style>
<path class="st0" d="M232.4,112.4h-5.2c0-26.9-12.9-50.6-32.7-64.8v20.3c0,4-3.2,7.2-7.2,7.2h-0.6c-4,0-7.2-3.2-7.2-7.2V39.3
	c-6.4-2.7-13.3-4.4-20.4-5.2v45.1c0,4-3.2,7.2-7.2,7.2h-0.6c-4,0-7.2-3.2-7.2-7.2V34c-7,0.7-13.7,2.4-20.1,5v28.8
	c0,4-3.2,7.2-7.2,7.2h-0.6c-4,0-7.2-3.2-7.2-7.2V47.3c-19.9,14.2-33,38-33,65.1h-5.2c-4,0-7.2,3.2-7.2,7.2v5.2c0,4,3.2,7.2,7.2,7.2
	h161.6c4,0,7.2-3.2,7.2-7.2v-5.2C239.6,115.6,236.3,112.4,232.4,112.4z"/>
<g>
	<path class="st0" d="M268.5,302H35.4v-14c0-38.9,31.6-70.5,70.5-70.5h92.2c38.9,0,70.5,31.6,70.5,70.5v14H268.5z"/>
	<path class="st0" d="M84.2,136c-1.9,0-3.5,1.6-3.3,3.6c2.7,36.9,33.5,66,71.1,66s68.4-29.1,71.1-66c0.1-1.9-1.4-3.6-3.3-3.6H84.2z"
		/>
</g>
</svg>
