<?xml version="1.0" encoding="utf-8"?>
<!-- Generator: Adobe Illustrator 22.1.0, SVG Export Plug-In . SVG Version: 6.00 Build 0)  -->
<svg version="1.1" id="Camada_1" xmlns="http://www.w3.org/2000/svg" xmlns:xlink="http://www.w3.org/1999/xlink" x="0px" y="0px"
	 viewBox="0 0 300 400" style="enable-background:new 0 0 300 400;" xml:space="preserve">
<style type="text/css">
	.st0{fill:#AF3110;}
	.st1{fill:#AF3110;stroke:#AF3110;stroke-miterlimit:10;}
	.st2{fill:#FFFFFF;}
</style>
<g>
	<g>
		<path class="st0" d="M39.9,171.5h19.9v-21.3H39.9V171.5z M119.6,150.4h19.9v-21.3h-19.9V150.4z M159.5,150.4h19.9v-21.3h-19.9
			V150.4z M199.3,150.4h19.9v-21.3h-19.9V150.4z M119.6,107.8h19.9V86.5h-19.9V107.8z M159.5,107.8h19.9V86.5h-19.9V107.8z
			 M199.3,107.8h19.9V86.5h-19.9V107.8z M119.6,235.3h19.9V214h-19.9V235.3z M159.5,235.3h19.9V214h-19.9V235.3z M199.3,235.3h19.9
			V214h-19.9V235.3z M119.6,277.7h19.9v-21.3h-19.9V277.7z M199.3,277.7h19.9v-21.3h-19.9V277.7z M119.6,320.2h19.9V299h-19.9V320.2
			z M199.3,320.2h19.9V299h-19.9V320.2z M259.1,299h19.9v-21.3h-19.9V299z M259.1,235.3v21.3h19.9v-21.3H259.1z M259.1,341.4h19.9
			v-21.3h-19.9V341.4z M119.6,192.8h19.9v-21.3h-19.9V192.8z M159.5,192.8h19.9v-21.3h-19.9V192.8z M199.3,192.8h19.9v-21.3h-19.9
			V192.8z M39.9,214h19.9v-21.3H39.9V214z M39.9,256.6h19.9v-21.3H39.9V256.6z M39.9,299h19.9v-21.3H39.9V299z M39.9,341.4h19.9
			v-21.3H39.9V341.4z M159.5,277.7h19.9v-21.3h-19.9V277.7z"/>
	</g>
</g>
<path class="st1" d="M299,362.6c0,11.7-8.9,21.3-19.9,21.3H19.9c-11,0-19.9-9.6-19.9-21.3V129.1c0-11.7,8.9-21.3,19.9-21.3h59.8
	V65.3c0-11.7,8.9-21.3,19.9-21.3h139.5c11,0,19.9,9.6,19.9,21.3v127.3h19.9c11,0,19.9,9.6,19.9,21.3V362.6z M79.7,129.1H19.9v233.5
	h59.8V129.1z M239.2,65.4H99.7v297.2h59.8V299h19.9v63.7h59.8V65.4z M279.1,214h-19.9v148.6h19.9V214z"/>
<g>
	<g>
		<path class="st2" d="M71.3,212.5c2.2,0,2.2-4.3,0-4.3C68.9,208.2,68.9,212.5,71.3,212.5L71.3,212.5z"/>
	</g>
</g>
<g>
	<g>
		<path class="st2" d="M75.6,224.9c2.2,0,2.2-4.3,0-4.3S73.4,224.9,75.6,224.9L75.6,224.9z"/>
	</g>
</g>
</svg>
